<svg xmlns="http://www.w3.org/2000/svg" width="603" height="161" fill="none"><g clip-path="url(#clip0)"><circle cx="80.452" cy="80.451" r="75" stroke="#F3F3F5" stroke-width="10"/><circle cx="80.452" cy="80.451" r="57" stroke="#F3F3F5" stroke-width="10"/><circle cx="80.452" cy="80.451" r="38" stroke="#F3F3F5" stroke-width="10"/><circle cx="302.452" cy="80.451" r="75" stroke="#F3F3F5" stroke-width="10"/><circle cx="302.452" cy="80.451" r="57" stroke="#F3F3F5" stroke-width="10"/><circle cx="302.452" cy="80.451" r="38" stroke="#F3F3F5" stroke-width="10"/><circle cx="522.452" cy="80.451" r="75" stroke="#F3F3F5" stroke-width="10"/><circle cx="522.452" cy="80.451" r="57" stroke="#F3F3F5" stroke-width="10"/><circle cx="522.452" cy="80.451" r="38" stroke="#F3F3F5" stroke-width="10"/><path stroke="#A6FCFF" stroke-linecap="round" stroke-linejoin="round" stroke-width="10" d="M80.4521 5.45117C39.0308 5.45117 5.45215 39.0298 5.45215 80.4512C5.45215 121.873 39.0308 155.451 80.4521 155.451C121.874 155.451 155.452 121.873 155.452 80.4512"/><path stroke="#A0F" stroke-linecap="round" stroke-linejoin="round" stroke-width="10" d="M80.4521 5.45117C39.0308 5.45117 5.45215 39.0298 5.45215 80.4512"/><path stroke="#C550FF" stroke-linecap="round" stroke-linejoin="round" stroke-width="10" d="M80.4521 23.4512C48.9719 23.4512 23.4521 48.9709 23.4521 80.4512C23.4521 111.931 48.9719 137.451 80.4521 137.451"/><g style="mix-blend-mode:multiply"><path stroke="#00F5FE" stroke-linecap="round" stroke-linejoin="round" stroke-width="10" d="M145.404 42.9524C124.693 7.08044 78.8239 -5.21019 42.9519 15.5005C7.07996 36.2112 -5.21067 82.0804 15.5 117.952C36.2107 153.824 82.08 166.115 117.952 145.404"/></g><g style="mix-blend-mode:multiply"><path stroke="#80C" stroke-linecap="round" stroke-linejoin="round" stroke-width="10" d="M145.404 42.9522C124.693 7.0802 78.8241 -5.21044 42.9522 15.5002"/></g><g style="mix-blend-mode:multiply"><path stroke="#80C" stroke-linecap="round" stroke-linejoin="round" stroke-width="10" d="M129.815 51.9522C114.075 24.6895 79.2145 15.3486 51.9518 31.0887C24.6892 46.8288 15.3483 81.6895 31.0884 108.952"/></g><path stroke="#00F5FE" stroke-linecap="round" stroke-linejoin="round" stroke-width="10" d="M302.452 5.45117C261.031 5.45117 227.452 39.0298 227.452 80.4512C227.452 121.873 261.031 155.451 302.452 155.451C321.182 155.451 338.309 148.585 351.452 137.233"/><path stroke="#A0F" stroke-linecap="round" stroke-linejoin="round" stroke-width="10" d="M302.452 23.4501C270.972 23.4501 245.452 48.9699 245.452 80.4502C245.452 97.8092 253.212 113.356 265.452 123.811"/><path stroke="#F0F" stroke-linecap="round" stroke-linejoin="round" stroke-width="10" d="M522.453 5.45117C481.031 5.45117 447.453 39.0298 447.453 80.4512"/><path stroke="#A0F" stroke-linecap="round" stroke-linejoin="round" stroke-width="10" d="M522.453 23.4512C490.972 23.4512 465.453 48.971 465.453 80.4512C465.453 102.565 478.046 121.738 496.453 131.189"/></g><defs><clipPath id="clip0"><path fill="#fff" d="M0 0H603V161H0z"/></clipPath></defs></svg>