<svg xmlns="http://www.w3.org/2000/svg" width="640" height="640" fill="none"><g clip-path="url(#clip0)"><g opacity=".8"><mask id="a" width="701" height="640" x="-7" y="25" mask-type="alpha" maskUnits="userSpaceOnUse"><path fill="#fff" d="M326.427 159.527C251.447 130.724 213.852 133.6 103.536 189.166C47.0136 217.61 -7.59349 251.881 17.7393 284.185C42.2926 315.829 78.0796 333.466 113.835 356.24C159.478 385.462 185.624 422.96 207.693 465.305C280.569 603.131 364.633 589.617 405.173 573.07C483.524 541.299 449.299 482.13 456.668 446.904C465.863 405.008 532.644 368.041 568.877 332.571C722.018 183.874 449.738 207.409 326.427 159.527Z" opacity=".66"/></mask><g mask="url(#a)"><ellipse fill="#272B33" rx="1.878" ry="1.878" transform="matrix(.06743 -.99787 -.99754 -.06797 531.968 455.359)"/><ellipse fill="#272B33" rx="1.878" ry="1.878" transform="matrix(.06744 -.99787 -.99754 -.06797 559.273 495.262)"/><ellipse fill="#272B33" rx="1.878" ry="1.878" transform="matrix(.06744 -.99787 -.99754 -.06797 487.418 404.27)"/><ellipse fill="#272B33" rx="1.878" ry="1.878" transform="matrix(.06743 -.99787 -.99754 -.06797 452.628 415.915)"/><ellipse fill="#272B33" rx="1.878" ry="1.878" transform="matrix(.06743 -.99787 -.99754 -.06797 472.807 413.286)"/><ellipse fill="#272B33" rx="1.878" ry="1.878" transform="matrix(.02629 .99985 .99947 -.02584 585.562 607.588)"/><ellipse fill="#272B33" rx="1.878" ry="1.878" transform="matrix(.02629 .99985 .99947 -.02583 590.786 578.478)"/><ellipse fill="#272B33" rx="1.878" ry="1.878" transform="matrix(.0263 .99985 .99947 -.02583 592.072 551.468)"/><ellipse fill="#272B33" rx="1.878" ry="1.878" transform="matrix(.0263 .99985 .99947 -.02583 583.647 534.701)"/><ellipse fill="#272B33" rx="1.878" ry="1.878" transform="matrix(.0263 .99985 .99947 -.02583 571.126 514.043)"/><ellipse fill="#272B33" rx="1.878" ry="1.878" transform="matrix(.02629 .99985 .99947 -.02584 551.517 527.539)"/><ellipse fill="#272B33" rx="1.878" ry="1.878" transform="matrix(.02629 .99985 .99947 -.02583 554.955 506.468)"/><ellipse fill="#272B33" rx="1.878" ry="1.878" transform="matrix(.02629 .99985 .99947 -.02584 527.211 514.179)"/><ellipse fill="#272B33" rx="1.878" ry="1.878" transform="matrix(.02629 .99985 .99947 -.02584 505.191 491.544)"/><ellipse fill="#272B33" rx="1.878" ry="1.878" transform="matrix(.02629 .99985 .99947 -.02583 479.858 503.367)"/><ellipse fill="#272B33" rx="1.878" ry="1.878" transform="matrix(.02629 .99985 .99947 -.02583 454.108 505.079)"/><g fill="#272B33" opacity=".5"><ellipse rx="1.878" ry="1.878" transform="matrix(.06743 -.99787 -.99754 -.06797 604.619 485.398)"/><ellipse rx="1.878" ry="1.878" transform="matrix(.06743 -.99787 -.99754 -.06797 620.584 515.518)"/><ellipse rx="1.878" ry="1.878" transform="matrix(.06743 -.99787 -.99754 -.06797 594.356 459.671)"/><ellipse rx="1.878" ry="1.878" transform="matrix(.06743 -.99787 -.99754 -.06797 576.557 471.472)"/><ellipse rx="1.878" ry="1.878" transform="matrix(.06743 -.99787 -.99754 -.06797 529.464 443.236)"/><ellipse rx="1.878" ry="1.878" transform="matrix(.06743 -.99787 -.99754 -.06797 502.623 470.44)"/><ellipse rx="1.878" ry="1.878" transform="matrix(.02629 .99985 .99947 -.02583 635.17 545.85)"/><ellipse rx="1.878" ry="1.878" transform="matrix(.02629 .99985 .99947 -.02584 568.839 512.032)"/><ellipse rx="1.878" ry="1.878" transform="matrix(.0263 .99985 .99947 -.02583 501.687 538.496)"/><ellipse rx="1.878" ry="1.878" transform="matrix(.0263 .99985 .99947 -.02583 603.041 538.688)"/><ellipse rx="1.878" ry="1.878" transform="matrix(.06743 -.99787 -.99754 -.06797 638.758 527.768)"/><ellipse rx="1.878" ry="1.878" transform="matrix(.06743 -.99787 -.99754 -.06797 549.522 427.584)"/></g><g fill="#272B33" opacity=".5"><ellipse rx="1.878" ry="1.878" transform="matrix(.06743 -.99787 -.99754 -.06797 617.941 436.249)"/><ellipse rx="1.878" ry="1.878" transform="matrix(.06744 -.99787 -.99754 -.06797 586.871 378.07)"/><ellipse rx="1.878" ry="1.878" transform="matrix(.06743 -.99787 -.99754 -.06797 573.226 417.185)"/><ellipse rx="1.878" ry="1.878" transform="matrix(.06743 -.99787 -.99754 -.06797 589.072 434.283)"/><ellipse rx="1.878" ry="1.878" transform="matrix(.06743 -.99787 -.99754 -.06797 537.149 388.698)"/><ellipse rx="1.878" ry="1.878" transform="matrix(.06743 -.99787 -.99754 -.06797 542.387 325.985)"/><ellipse rx="1.878" ry="1.878" transform="matrix(.06743 -.99787 -.99754 -.06797 491.702 439.663)"/><ellipse rx="1.878" ry="1.878" transform="matrix(.06743 -.99787 -.99754 -.06797 472.3 460.365)"/><ellipse rx="1.878" ry="1.878" transform="matrix(.06743 -.99787 -.99754 -.06797 631.542 575.33)"/><ellipse rx="1.878" ry="1.878" transform="matrix(.02629 .99985 .99947 -.02583 527.435 523.096)"/><ellipse rx="1.878" ry="1.878" transform="matrix(.02629 .99985 .99947 -.02583 556.912 525.978)"/><ellipse rx="1.878" ry="1.878" transform="matrix(.0263 .99985 .99947 -.02583 581.497 479.765)"/><ellipse rx="1.878" ry="1.878" transform="matrix(.06743 -.99787 -.99754 -.06797 441.163 403.182)"/><ellipse rx="1.878" ry="1.878" transform="matrix(.06743 -.99787 -.99754 -.06797 630.103 488.227)"/><ellipse rx="1.878" ry="1.878" transform="matrix(.06743 -.99787 -.99754 -.06797 598.965 431.044)"/></g><g fill="#272B33" opacity=".1"><ellipse rx="1.878" ry="1.878" transform="matrix(.06743 -.99787 -.99754 -.06797 587.869 257.838)"/><ellipse rx="1.878" ry="1.878" transform="matrix(.06743 -.99787 -.99754 -.06797 589.56 291.991)"/><ellipse rx="1.878" ry="1.878" transform="matrix(.06743 -.99787 -.99754 -.06797 631.633 231.787)"/><ellipse rx="1.878" ry="1.878" transform="matrix(.06743 -.99787 -.99754 -.06797 559.838 213.882)"/><ellipse rx="1.878" ry="1.878" transform="matrix(.06743 -.99787 -.99754 -.06797 528.767 155.703)"/><ellipse rx="1.878" ry="1.878" transform="matrix(.06743 -.99787 -.99754 -.06797 515.123 194.818)"/><ellipse rx="1.878" ry="1.878" transform="matrix(.06744 -.99787 -.99754 -.06797 530.968 211.915)"/><ellipse rx="1.878" ry="1.878" transform="matrix(.06743 -.99787 -.99754 -.06797 479.046 166.331)"/><ellipse rx="1.878" ry="1.878" transform="matrix(.06743 -.99787 -.99754 -.06797 484.284 103.617)"/><ellipse rx="1.878" ry="1.878" transform="matrix(.06743 -.99787 -.99754 -.06797 433.598 217.295)"/><ellipse rx="1.878" ry="1.878" transform="matrix(.06743 -.99787 -.99754 -.06797 414.197 237.997)"/><ellipse rx="1.878" ry="1.878" transform="matrix(.0263 .99985 .99947 -.02583 625.863 433.124)"/><ellipse rx="1.878" ry="1.878" transform="matrix(.02628 .99985 .99947 -.02584 608.985 322.656)"/><ellipse rx="1.878" ry="1.878" transform="matrix(.06743 -.99787 -.99754 -.06797 625.929 360.543)"/><ellipse rx="1.878" ry="1.878" transform="matrix(.06743 -.99787 -.99754 -.06797 573.438 352.962)"/><ellipse rx="1.878" ry="1.878" transform="matrix(.0263 .99985 .99947 -.02583 469.331 300.728)"/><ellipse rx="1.878" ry="1.878" transform="matrix(.02629 .99985 .99947 -.02583 498.809 303.61)"/><ellipse rx="1.878" ry="1.878" transform="matrix(.02629 .99985 .99947 -.02583 523.394 257.398)"/><ellipse rx="1.878" ry="1.878" transform="matrix(.06743 -.99787 -.99754 -.06797 602.996 329.948)"/><ellipse rx="1.878" ry="1.878" transform="matrix(.06743 -.99787 -.99754 -.06797 383.06 180.815)"/><ellipse rx="1.878" ry="1.878" transform="matrix(.06743 -.99787 -.99754 -.06797 619.782 269.115)"/><ellipse rx="1.878" ry="1.878" transform="matrix(.06744 -.99787 -.99754 -.06797 639.962 266.484)"/><ellipse rx="1.878" ry="1.878" transform="matrix(.06743 -.99787 -.99754 -.06797 629.161 248.73)"/><ellipse rx="1.878" ry="1.878" transform="matrix(.06743 -.99787 -.99754 -.06797 602.32 275.934)"/><ellipse rx="1.878" ry="1.878" transform="matrix(.06743 -.99787 -.99754 -.06797 636.846 194.192)"/><ellipse rx="1.878" ry="1.878" transform="matrix(.06743 -.99787 -.99754 -.06797 591.399 245.156)"/><ellipse rx="1.878" ry="1.878" transform="matrix(.06743 -.99787 -.99754 -.06797 571.999 265.859)"/><ellipse rx="1.878" ry="1.878" transform="matrix(.06743 -.99787 -.99754 -.06797 540.861 208.676)"/></g><ellipse fill="#272B33" rx="1.878" ry="1.878" transform="matrix(-.9298 .36848 .36786 .92972 144.958 253.847)"/><ellipse fill="#272B33" rx="1.878" ry="1.878" transform="matrix(-.9298 .36848 .36786 .92972 169.229 212.029)"/><ellipse fill="#272B33" rx="1.878" ry="1.878" transform="matrix(-.9298 .36848 .36786 .92972 118.009 316.045)"/><ellipse fill="#272B33" rx="1.878" ry="1.878" transform="matrix(-.9298 .36848 .36786 .92972 143.49 342.438)"/><ellipse fill="#272B33" rx="1.878" ry="1.878" transform="matrix(-.9298 .36848 .36785 .92973 132.434 325.354)"/><ellipse fill="#272B33" rx="1.878" ry="1.878" transform="matrix(.89125 -.45393 -.45337 -.8911 259.315 139.968)"/><ellipse fill="#272B33" rx="1.878" ry="1.878" transform="matrix(.89125 -.45393 -.45337 -.8911 230.79 147.777)"/><ellipse fill="#272B33" rx="1.878" ry="1.878" transform="matrix(.89125 -.45394 -.45336 -.89111 205.855 158.238)"/><ellipse fill="#272B33" rx="1.878" ry="1.878" transform="matrix(.89125 -.45394 -.45336 -.89111 194.345 173.058)"/><ellipse fill="#272B33" rx="1.878" ry="1.878" transform="matrix(.89125 -.45394 -.45336 -.89111 181.084 193.248)"/><ellipse fill="#272B33" rx="1.878" ry="1.878" transform="matrix(.89125 -.45393 -.45337 -.8911 201.703 205.143)"/><ellipse fill="#272B33" rx="1.878" ry="1.878" transform="matrix(.89125 -.45393 -.45337 -.8911 181.203 211.105)"/><ellipse fill="#272B33" rx="1.878" ry="1.878" transform="matrix(.89125 -.45393 -.45337 -.8911 200.102 232.832)"/><ellipse fill="#272B33" rx="1.878" ry="1.878" transform="matrix(.89125 -.45393 -.45337 -.8911 189.143 262.449)"/><ellipse fill="#272B33" rx="1.878" ry="1.878" transform="matrix(.89125 -.45393 -.45337 -.8911 210.717 280.229)"/><ellipse fill="#272B33" rx="1.878" ry="1.878" transform="matrix(.89125 -.45393 -.45337 -.8911 223.342 302.738)"/><g fill="#272B33" opacity=".5"><ellipse rx="1.878" ry="1.878" transform="matrix(-.9298 .36848 .36786 .92973 140.814 175.34)"/><ellipse rx="1.878" ry="1.878" transform="matrix(-.9298 .36848 .36786 .92973 161.134 147.968)"/><ellipse rx="1.878" ry="1.878" transform="matrix(-.9298 .36848 .36785 .92973 122.006 195.673)"/><ellipse rx="1.878" ry="1.878" transform="matrix(-.9298 .36848 .36786 .92972 140.318 206.663)"/><ellipse rx="1.878" ry="1.878" transform="matrix(-.9298 .36848 .36786 .92973 135.093 261.324)"/><ellipse rx="1.878" ry="1.878" transform="matrix(-.9298 .36848 .36785 .92973 171.198 273.848)"/><ellipse rx="1.878" ry="1.878" transform="matrix(.89125 -.45393 -.45337 -.8911 231.21 32.982)"/><ellipse rx="1.878" ry="1.878" transform="matrix(.89125 -.45394 -.45337 -.8911 250.954 47.561)"/><ellipse rx="1.878" ry="1.878" transform="matrix(.89125 -.45394 -.45337 -.8911 229.609 60.672)"/><ellipse rx="1.878" ry="1.878" transform="matrix(.89125 -.45394 -.45336 -.89111 205.459 55.056)"/><ellipse rx="1.878" ry="1.878" transform="matrix(.89125 -.45393 -.45337 -.8911 189.559 81.071)"/><ellipse rx="1.878" ry="1.878" transform="matrix(.89125 -.45393 -.45337 -.8911 192.786 96.223)"/><ellipse rx="1.878" ry="1.878" transform="matrix(.89125 -.45393 -.45337 -.8911 182.24 121.75)"/><ellipse rx="1.878" ry="1.878" transform="matrix(.89125 -.45393 -.45337 -.8911 180.252 196.178)"/><ellipse rx="1.878" ry="1.878" transform="matrix(.89125 -.45394 -.45336 -.89111 233.036 245.41)"/><ellipse rx="1.878" ry="1.878" transform="matrix(.89125 -.45394 -.45336 -.89111 189.598 153.835)"/><ellipse rx="1.878" ry="1.878" transform="matrix(-.9298 .36848 .36786 .92973 164.374 126.291)"/><ellipse rx="1.878" ry="1.878" transform="matrix(-.9298 .36849 .36785 .92973 112.332 249.951)"/></g><g fill="#272B33" opacity=".5"><ellipse rx="1.878" ry="1.878" transform="matrix(-.9298 .36848 .36786 .92972 118.335 140.244)"/><ellipse rx="1.878" ry="1.878" transform="matrix(-.9298 .36848 .36786 .92972 148.437 124.022)"/><ellipse rx="1.878" ry="1.878" transform="matrix(-.9298 .36848 .36786 .92972 124.899 75.392)"/><ellipse rx="1.878" ry="1.878" transform="matrix(-.9298 .36848 .36786 .92972 75.989 111.948)"/><ellipse rx="1.878" ry="1.878" transform="matrix(-.9298 .36848 .36785 .92973 90.716 184.461)"/><ellipse rx="1.878" ry="1.878" transform="matrix(-.9298 .36848 .36786 .92972 51.567 237.541)"/><ellipse rx="1.878" ry="1.878" transform="matrix(-.9298 .36848 .36785 .92973 92.747 233.028)"/><ellipse rx="1.878" ry="1.878" transform="matrix(-.9298 .36848 .36786 .92973 101.363 211.368)"/><ellipse rx="1.878" ry="1.878" transform="matrix(-.9298 .36848 .36786 .92972 82.555 277.852)"/><ellipse rx="1.878" ry="1.878" transform="matrix(-.9298 .36848 .36786 .92972 23.689 300.107)"/><ellipse rx="1.878" ry="1.878" transform="matrix(-.9298 .36849 .36785 .92973 148.115 296.949)"/><ellipse rx="1.878" ry="1.878" transform="matrix(-.9298 .36848 .36786 .92972 175.151 305.555)"/><ellipse rx="1.878" ry="1.878" transform="matrix(.89125 -.45394 -.45337 -.8911 260.218 30.528)"/><ellipse rx="1.878" ry="1.878" transform="matrix(.89125 -.45394 -.45337 -.8911 155.365 42.498)"/><ellipse rx="1.878" ry="1.878" transform="matrix(.89125 -.45393 -.45337 -.8911 167.761 93.294)"/><ellipse rx="1.878" ry="1.878" transform="matrix(-.9298 .36848 .36786 .92972 194.67 61.696)"/><ellipse rx="1.878" ry="1.878" transform="matrix(-.9298 .36848 .36786 .92972 210.412 112.342)"/><ellipse rx="1.878" ry="1.878" transform="matrix(.89125 -.45394 -.45337 -.8911 208.055 228.794)"/><ellipse rx="1.878" ry="1.878" transform="matrix(.89125 -.45394 -.45337 -.8911 197.974 200.944)"/><ellipse rx="1.878" ry="1.878" transform="matrix(.89125 -.45394 -.45336 -.89111 145.679 198.636)"/><ellipse rx="1.878" ry="1.878" transform="matrix(-.9298 .36848 .36786 .92973 176.92 95.562)"/><ellipse rx="1.878" ry="1.878" transform="matrix(-.9298 .36849 .36785 .92973 136.93 358.267)"/><ellipse rx="1.878" ry="1.878" transform="matrix(-.9298 .36848 .36786 .92972 89.3 80.19)"/><ellipse rx="1.878" ry="1.878" transform="matrix(-.9298 .36848 .36786 .92972 114.782 106.584)"/><ellipse rx="1.878" ry="1.878" transform="matrix(-.9298 .36848 .36786 .92972 103.726 89.5)"/><ellipse rx="1.878" ry="1.878" transform="matrix(-.9298 .36848 .36786 .92972 79.26 41.239)"/><ellipse rx="1.878" ry="1.878" transform="matrix(-.9298 .36849 .36785 .92973 97.571 52.227)"/><ellipse rx="1.878" ry="1.878" transform="matrix(-.9298 .36848 .36786 .92972 92.346 106.889)"/><ellipse rx="1.878" ry="1.878" transform="matrix(-.9298 .36848 .36786 .92972 128.452 119.413)"/><ellipse rx="1.878" ry="1.878" transform="matrix(-.9298 .36848 .36786 .92972 69.586 95.516)"/><ellipse rx="1.878" ry="1.878" transform="matrix(-.9298 .36848 .36786 .92972 47.97 30.026)"/><ellipse rx="1.878" ry="1.878" transform="matrix(-.9298 .36848 .36786 .92972 8.82 83.106)"/><ellipse rx="1.878" ry="1.878" transform="matrix(-.9298 .36848 .36786 .92972 50 78.592)"/><ellipse rx="1.878" ry="1.878" transform="matrix(-.9298 .36848 .36786 .92972 58.616 56.931)"/><ellipse rx="1.878" ry="1.878" transform="matrix(-.9298 .36848 .36786 .92973 39.808 123.417)"/><ellipse rx="1.878" ry="1.878" transform="matrix(-.9298 .36848 .36786 .92972 105.368 142.514)"/><ellipse rx="1.878" ry="1.878" transform="matrix(-.9298 .36848 .36786 .92972 132.403 151.119)"/><ellipse rx="1.878" ry="1.878" transform="matrix(-.9298 .36848 .36786 .92972 94.183 203.831)"/></g><g fill="#272B33" opacity=".1"><ellipse rx="1.878" ry="1.878" transform="matrix(-.9298 .36848 .36786 .92972 -.58 453.684)"/><ellipse rx="1.878" ry="1.878" transform="matrix(.89125 -.45394 -.45336 -.89111 84.486 178.656)"/><ellipse rx="1.878" ry="1.878" transform="matrix(.89125 -.45393 -.45337 -.8911 51.288 155.253)"/><ellipse rx="1.878" ry="1.878" transform="matrix(-.9298 .36848 .36786 .92972 18.939 209.824)"/><ellipse rx="1.878" ry="1.878" transform="matrix(-.9298 .36848 .36786 .92972 34.682 260.471)"/><ellipse rx="1.878" ry="1.878" transform="matrix(.89125 -.45394 -.45336 -.89111 32.324 376.923)"/><ellipse rx="1.878" ry="1.878" transform="matrix(.89125 -.45393 -.45337 -.8911 22.242 349.073)"/><ellipse rx="1.878" ry="1.878" transform="matrix(-.9298 .36848 .36786 .92972 1.189 243.691)"/></g><ellipse fill="#000" rx="1.878" ry="1.878" transform="matrix(.85112 -.52476 .52514 .85114 239.162 489.349)"/><ellipse fill="#000" rx="1.878" ry="1.878" transform="matrix(.85112 -.52476 .52514 .85115 191.143 483.777)"/><ellipse fill="#000" rx="1.878" ry="1.878" transform="matrix(.85112 -.52476 .52513 .85115 305.114 504.972)"/><ellipse fill="#000" rx="1.878" ry="1.878" transform="matrix(.85113 -.52475 .52514 .85114 311.036 541.191)"/><ellipse fill="#000" rx="1.878" ry="1.878" transform="matrix(.85112 -.52476 .52514 .85114 303.952 522.105)"/><ellipse fill="#000" rx="1.878" ry="1.878" transform="matrix(-.89658 .44272 -.4431 -.89656 79.547 512.853)"/><ellipse fill="#000" rx="1.878" ry="1.878" transform="matrix(-.89658 .44272 -.4431 -.89656 102.855 494.665)"/><ellipse fill="#000" rx="1.878" ry="1.878" transform="matrix(-.89657 .44272 -.44309 -.89656 126.143 480.94)"/><ellipse fill="#000" rx="1.878" ry="1.878" transform="matrix(-.89659 .4427 -.44312 -.89655 144.899 480.583)"/><ellipse fill="#000" rx="1.878" ry="1.878" transform="matrix(-.89657 .44272 -.44309 -.89656 169.006 482.038)"/><ellipse fill="#000" rx="1.878" ry="1.878" transform="matrix(-.89658 .44272 -.4431 -.89656 166.213 505.682)"/><ellipse fill="#000" rx="1.878" ry="1.878" transform="matrix(-.89657 .44272 -.44309 -.89656 183.244 492.82)"/><ellipse fill="#000" rx="1.878" ry="1.878" transform="matrix(-.89657 .44272 -.44309 -.89656 189.36 520.97)"/><ellipse fill="#000" rx="1.878" ry="1.878" transform="matrix(-.89657 .44273 -.44309 -.89656 219.645 529.911)"/><ellipse fill="#000" rx="1.878" ry="1.878" transform="matrix(-.89659 .4427 -.44312 -.89655 220.999 557.842)"/><ellipse fill="#000" rx="1.878" ry="1.878" transform="matrix(-.8966 .44269 -.44312 -.89655 231.492 581.432)"/><g fill="#000" opacity=".5"><ellipse rx="1.878" ry="1.878" transform="matrix(.85113 -.52476 .52514 .85114 178.721 439.046)"/><ellipse rx="1.878" ry="1.878" transform="matrix(.85113 -.52475 .52514 .85114 144.64 438.951)"/><ellipse rx="1.878" ry="1.878" transform="matrix(.85113 -.52476 .52514 .85114 206.256 436.139)"/><ellipse rx="1.878" ry="1.878" transform="matrix(.85112 -.52476 .52514 .85114 204.118 457.393)"/><ellipse rx="1.878" ry="1.878" transform="matrix(.85112 -.52476 .52514 .85114 251.047 485.917)"/><ellipse rx="1.878" ry="1.878" transform="matrix(.85113 -.52475 .52514 .85114 239.503 522.35)"/><ellipse rx="1.878" ry="1.878" transform="matrix(-.89658 .44272 -.4431 -.89656 9.824 426.147)"/><ellipse rx="1.878" ry="1.878" transform="matrix(-.89658 .44272 -.4431 -.89656 9.705 450.697)"/><ellipse rx="1.878" ry="1.878" transform="matrix(-.89658 .44272 -.4431 -.89656 32.971 441.435)"/><ellipse rx="1.878" ry="1.878" transform="matrix(-.89658 .44271 -.4431 -.89656 42.904 418.718)"/><ellipse rx="1.878" ry="1.878" transform="matrix(-.89658 .44272 -.4431 -.89656 73.256 421.542)"/><ellipse rx="1.878" ry="1.878" transform="matrix(-.89658 .44272 -.4431 -.89656 83.471 433.197)"/><ellipse rx="1.878" ry="1.878" transform="matrix(-.8966 .44269 -.44312 -.89655 111.014 440.176)"/><ellipse rx="1.878" ry="1.878" transform="matrix(-.89658 .44272 -.4431 -.89656 171.848 483.125)"/><ellipse rx="1.878" ry="1.878" transform="matrix(-.89657 .44272 -.44309 -.89656 179.752 554.892)"/><ellipse rx="1.878" ry="1.878" transform="matrix(-.89657 .44272 -.44309 -.89656 132.328 465.275)"/><ellipse rx="1.878" ry="1.878" transform="matrix(.85113 -.52476 .52514 .85114 125.333 428.575)"/><ellipse rx="1.878" ry="1.878" transform="matrix(.85112 -.52476 .52513 .85115 255.537 460.869)"/></g><g fill="#000" opacity=".5"><ellipse rx="1.878" ry="1.878" transform="matrix(.85112 -.52476 .52513 .85115 164.032 400.025)"/><ellipse rx="1.878" ry="1.878" transform="matrix(.85113 -.52476 .52514 .85114 133.039 414.443)"/><ellipse rx="1.878" ry="1.878" transform="matrix(.85113 -.52476 .52514 .85114 108.136 366.475)"/><ellipse rx="1.878" ry="1.878" transform="matrix(.85115 -.52472 .52517 .85112 166.666 349.151)"/><ellipse rx="1.878" ry="1.878" transform="matrix(.85113 -.52475 .52515 .85114 215.973 404.351)"/><ellipse rx="1.878" ry="1.878" transform="matrix(.85113 -.52475 .52514 .85114 281.913 404.739)"/><ellipse rx="1.878" ry="1.878" transform="matrix(.85112 -.52476 .52514 .85114 253.682 435.043)"/><ellipse rx="1.878" ry="1.878" transform="matrix(.85112 -.52476 .52514 .85114 231.173 428.986)"/><ellipse rx="1.878" ry="1.878" transform="matrix(.85112 -.52476 .52514 .85114 295.696 453.7)"/><ellipse rx="1.878" ry="1.878" transform="matrix(.85113 -.52476 .52514 .85114 348.714 419.838)"/><ellipse rx="1.878" ry="1.878" transform="matrix(.85115 -.52472 .52517 .85112 271.815 517.673)"/><ellipse rx="1.878" ry="1.878" transform="matrix(.85112 -.52476 .52514 .85114 262.55 544.492)"/><ellipse rx="1.878" ry="1.878" transform="matrix(-.89659 .44269 -.44312 -.89655 62.783 371.053)"/><ellipse rx="1.878" ry="1.878" transform="matrix(-.89658 .44272 -.4431 -.89656 96.08 411.386)"/><ellipse rx="1.878" ry="1.878" transform="matrix(.85113 -.52475 .52514 .85114 54.675 414.044)"/><ellipse rx="1.878" ry="1.878" transform="matrix(.85113 -.52476 .52514 .85114 85.852 456.97)"/><ellipse rx="1.878" ry="1.878" transform="matrix(-.89657 .44272 -.44309 -.89656 181.368 524.926)"/><ellipse rx="1.878" ry="1.878" transform="matrix(-.89657 .44272 -.44309 -.89656 165.076 500.18)"/><ellipse rx="1.878" ry="1.878" transform="matrix(-.89657 .44272 -.44309 -.89656 194.481 456.884)"/><ellipse rx="1.878" ry="1.878" transform="matrix(.85113 -.52476 .52514 .85114 92.424 420.085)"/><ellipse rx="1.878" ry="1.878" transform="matrix(.85112 -.52476 .52514 .85114 327.638 545.404)"/><ellipse rx="1.878" ry="1.878" transform="matrix(.85113 -.52475 .52514 .85114 66.524 325.037)"/><ellipse rx="1.878" ry="1.878" transform="matrix(.85113 -.52476 .52514 .85114 18.505 319.465)"/><ellipse rx="1.878" ry="1.878" transform="matrix(.85113 -.52475 .52514 .85114 133.258 340.815)"/><ellipse rx="1.878" ry="1.878" transform="matrix(.85113 -.52476 .52514 .85114 139.18 377.034)"/><ellipse rx="1.878" ry="1.878" transform="matrix(.85112 -.52476 .52514 .85115 132.097 357.948)"/><ellipse rx="1.878" ry="1.878" transform="matrix(.85113 -.52475 .52514 .85114 79.725 312.208)"/><ellipse rx="1.878" ry="1.878" transform="matrix(.85113 -.52476 .52514 .85114 45.645 312.113)"/><ellipse rx="1.878" ry="1.878" transform="matrix(.85112 -.52476 .52514 .85115 107.262 309.301)"/><ellipse rx="1.878" ry="1.878" transform="matrix(.85113 -.52475 .52514 .85114 105.124 330.555)"/><ellipse rx="1.878" ry="1.878" transform="matrix(.85113 -.52476 .52514 .85114 152.835 359.234)"/><ellipse rx="1.878" ry="1.878" transform="matrix(.85113 -.52476 .52514 .85114 141.291 395.667)"/><ellipse rx="1.878" ry="1.878" transform="matrix(.85112 -.52476 .52514 .85114 26.337 301.737)"/><ellipse rx="1.878" ry="1.878" transform="matrix(.85112 -.52476 .52513 .85115 157.325 334.186)"/><ellipse rx="1.878" ry="1.878" transform="matrix(.85113 -.52476 .52514 .85114 65.035 273.187)"/><ellipse rx="1.878" ry="1.878" transform="matrix(.85113 -.52475 .52514 .85114 34.043 287.605)"/><ellipse rx="1.878" ry="1.878" transform="matrix(.85113 -.52476 .52514 .85114 9.14 239.637)"/><ellipse rx="1.878" ry="1.878" transform="matrix(.85113 -.52476 .52514 .85114 67.67 222.313)"/><ellipse rx="1.878" ry="1.878" transform="matrix(.85113 -.52476 .52514 .85114 116.979 277.513)"/><ellipse rx="1.878" ry="1.878" transform="matrix(.85113 -.52476 .52514 .85114 183.7 278.056)"/><ellipse rx="1.878" ry="1.878" transform="matrix(.85112 -.52476 .52513 .85115 155.469 308.36)"/><ellipse rx="1.878" ry="1.878" transform="matrix(.85113 -.52476 .52514 .85114 132.961 302.302)"/><ellipse rx="1.878" ry="1.878" transform="matrix(.85113 -.52475 .52514 .85114 197.482 327.015)"/><ellipse rx="1.878" ry="1.878" transform="matrix(.85113 -.52475 .52514 .85114 250.502 293.155)"/><ellipse rx="1.878" ry="1.878" transform="matrix(.85113 -.52476 .52514 .85114 173.601 390.99)"/><ellipse rx="1.878" ry="1.878" transform="matrix(.85113 -.52476 .52514 .85114 164.338 417.808)"/><ellipse rx="1.878" ry="1.878" transform="matrix(.85112 -.52476 .52513 .85115 229.426 418.721)"/><ellipse rx="1.878" ry="1.878" transform="matrix(-.89658 .44272 -.4431 -.89656 17.299 357.89)"/></g><g fill="#000" opacity=".1"><ellipse rx="1.878" ry="1.878" transform="matrix(.85113 -.52475 .52514 .85114 387.777 347.828)"/><ellipse rx="1.878" ry="1.878" transform="matrix(.85112 -.52476 .52513 .85115 356.784 362.246)"/><ellipse rx="1.878" ry="1.878" transform="matrix(.85113 -.52475 .52514 .85114 331.881 314.278)"/><ellipse rx="1.878" ry="1.878" transform="matrix(.85113 -.52475 .52514 .85114 390.411 296.954)"/><ellipse rx="1.878" ry="1.878" transform="matrix(.85112 -.52476 .52514 .85114 439.719 352.154)"/><ellipse rx="1.878" ry="1.878" transform="matrix(.85113 -.52475 .52514 .85114 505.658 352.542)"/><ellipse rx="1.878" ry="1.878" transform="matrix(.85112 -.52476 .52513 .85115 477.427 382.846)"/><ellipse rx="1.878" ry="1.878" transform="matrix(.85113 -.52476 .52514 .85114 454.919 376.789)"/><ellipse rx="1.878" ry="1.878" transform="matrix(.85113 -.52475 .52514 .85114 519.441 401.503)"/><ellipse rx="1.878" ry="1.878" transform="matrix(.85113 -.52476 .52514 .85114 572.46 367.641)"/><ellipse rx="1.878" ry="1.878" transform="matrix(.85113 -.52475 .52514 .85114 495.56 465.477)"/><ellipse rx="1.878" ry="1.878" transform="matrix(.85113 -.52476 .52514 .85114 486.296 492.295)"/><ellipse rx="1.878" ry="1.878" transform="matrix(-.89658 .44272 -.4431 -.89656 215.047 395.884)"/><ellipse rx="1.878" ry="1.878" transform="matrix(-.89658 .44272 -.4431 -.89656 216.136 355.27)"/><ellipse rx="1.878" ry="1.878" transform="matrix(-.89658 .44271 -.4431 -.89656 287.311 319.011)"/><ellipse rx="1.878" ry="1.878" transform="matrix(-.89658 .44271 -.4431 -.89656 320.608 359.344)"/><ellipse rx="1.878" ry="1.878" transform="matrix(.85112 -.52476 .52514 .85114 279.202 362.001)"/><ellipse rx="1.878" ry="1.878" transform="matrix(.85113 -.52475 .52514 .85114 310.38 404.928)"/><ellipse rx="1.878" ry="1.878" transform="matrix(-.89658 .44271 -.4431 -.89656 405.113 472.73)"/><ellipse rx="1.878" ry="1.878" transform="matrix(-.89658 .44271 -.4431 -.89656 388.821 447.983)"/><ellipse rx="1.878" ry="1.878" transform="matrix(-.89658 .4427 -.4431 -.89656 418.226 404.687)"/><ellipse rx="1.878" ry="1.878" transform="matrix(.85113 -.52475 .52514 .85114 316.952 368.042)"/><ellipse rx="1.878" ry="1.878" transform="matrix(.85112 -.52476 .52514 .85114 551.383 493.207)"/><ellipse rx="1.878" ry="1.878" transform="matrix(.85113 -.52476 .52514 .85114 291.051 272.995)"/><ellipse rx="1.878" ry="1.878" transform="matrix(.85113 -.52475 .52514 .85114 243.033 267.423)"/><ellipse rx="1.878" ry="1.878" transform="matrix(.85113 -.52475 .52514 .85114 357.004 288.618)"/><ellipse rx="1.878" ry="1.878" transform="matrix(.85113 -.52475 .52514 .85114 362.925 324.837)"/><ellipse rx="1.878" ry="1.878" transform="matrix(.85112 -.52477 .52513 .85115 355.842 305.751)"/><ellipse rx="1.878" ry="1.878" transform="matrix(.85113 -.52475 .52514 .85114 304.253 260.165)"/><ellipse rx="1.878" ry="1.878" transform="matrix(.85112 -.52476 .52514 .85115 270.173 260.071)"/><ellipse rx="1.878" ry="1.878" transform="matrix(.85112 -.52476 .52514 .85115 331.79 257.259)"/><ellipse rx="1.878" ry="1.878" transform="matrix(.85113 -.52475 .52515 .85114 329.652 278.513)"/><ellipse rx="1.878" ry="1.878" transform="matrix(.85113 -.52476 .52514 .85114 376.581 307.037)"/><ellipse rx="1.878" ry="1.878" transform="matrix(.85112 -.52476 .52514 .85115 365.036 343.47)"/><ellipse rx="1.878" ry="1.878" transform="matrix(.85112 -.52476 .52514 .85114 250.865 249.695)"/><ellipse rx="1.878" ry="1.878" transform="matrix(.85113 -.52476 .52514 .85114 381.071 281.989)"/><ellipse rx="1.878" ry="1.878" transform="matrix(.85112 -.52476 .52514 .85114 289.563 221.145)"/><ellipse rx="1.878" ry="1.878" transform="matrix(.85112 -.52476 .52514 .85114 258.571 235.563)"/><ellipse rx="1.878" ry="1.878" transform="matrix(.85113 -.52476 .52514 .85114 233.669 187.595)"/><ellipse rx="1.878" ry="1.878" transform="matrix(.85113 -.52475 .52514 .85114 292.198 170.271)"/><ellipse rx="1.878" ry="1.878" transform="matrix(.85113 -.52475 .52514 .85114 341.507 225.47)"/><ellipse rx="1.878" ry="1.878" transform="matrix(.85113 -.52475 .52515 .85114 407.445 225.859)"/><ellipse rx="1.878" ry="1.878" transform="matrix(.85113 -.52476 .52514 .85114 379.214 256.163)"/><ellipse rx="1.878" ry="1.878" transform="matrix(.85112 -.52476 .52514 .85114 356.706 250.105)"/><ellipse rx="1.878" ry="1.878" transform="matrix(.85112 -.52476 .52513 .85115 421.227 274.819)"/><ellipse rx="1.878" ry="1.878" transform="matrix(.85112 -.52476 .52514 .85114 474.247 240.958)"/><ellipse rx="1.878" ry="1.878" transform="matrix(.85113 -.52476 .52514 .85114 397.346 338.793)"/><ellipse rx="1.878" ry="1.878" transform="matrix(.85113 -.52476 .52514 .85114 388.083 365.612)"/><ellipse rx="1.878" ry="1.878" transform="matrix(.85113 -.52475 .52514 .85114 180.989 235.318)"/><ellipse rx="1.878" ry="1.878" transform="matrix(.85113 -.52475 .52514 .85114 212.168 278.244)"/><ellipse rx="1.878" ry="1.878" transform="matrix(.85113 -.52476 .52514 .85114 218.739 241.359)"/><ellipse rx="1.878" ry="1.878" transform="matrix(.85112 -.52476 .52513 .85115 453.171 366.524)"/><ellipse rx="1.878" ry="1.878" transform="matrix(-.89657 .44272 -.44309 -.89656 241.826 305.848)"/></g><ellipse fill="#000" rx="1.878" ry="1.878" transform="matrix(-.77829 .62774 -.62812 -.77826 573.199 278.898)"/><ellipse fill="#000" rx="1.878" ry="1.878" transform="matrix(-.77828 .62774 -.62811 -.77826 621.537 278.38)"/><ellipse fill="#000" rx="1.878" ry="1.878" transform="matrix(-.77828 .62774 -.62811 -.77826 505.804 271.702)"/><ellipse fill="#000" rx="1.878" ry="1.878" transform="matrix(-.77829 .62773 -.62812 -.77825 495.37 236.517)"/><ellipse fill="#000" rx="1.878" ry="1.878" transform="matrix(-.77829 .62774 -.62812 -.77826 504.8 254.559)"/><ellipse fill="#000" rx="1.878" ry="1.878" transform="matrix(.8337 -.55208 .55244 .83365 628.234 268.415)"/><ellipse fill="#000" rx="1.878" ry="1.878" transform="matrix(.8337 -.55207 .55244 .83364 618.623 241.258)"/><ellipse fill="#000" rx="1.878" ry="1.878" transform="matrix(.8337 -.55208 .55244 .83365 587.453 236.201)"/><ellipse fill="#000" rx="1.878" ry="1.878" transform="matrix(.83372 -.55205 .55246 .83363 582.593 208.663)"/><ellipse fill="#000" rx="1.878" ry="1.878" transform="matrix(.83372 -.55204 .55247 .83362 569.214 186.582)"/><g fill="#000" opacity=".5"><ellipse rx="1.878" ry="1.878" transform="matrix(-.77829 .62774 -.62812 -.77826 639.491 321.191)"/><ellipse rx="1.878" ry="1.878" transform="matrix(-.77829 .62774 -.62812 -.77826 612.54 327.541)"/><ellipse rx="1.878" ry="1.878" transform="matrix(-.77829 .62774 -.62812 -.77826 611.986 306.188)"/><ellipse rx="1.878" ry="1.878" transform="matrix(-.77829 .62774 -.62812 -.77826 561.839 283.799)"/><ellipse rx="1.878" ry="1.878" transform="matrix(-.77829 .62773 -.62812 -.77825 568.704 246.203)"/><ellipse rx="1.878" ry="1.878" transform="matrix(.8337 -.55207 .55244 .83364 640.759 276.598)"/><ellipse rx="1.878" ry="1.878" transform="matrix(.8337 -.55207 .55244 .83364 623.882 206.397)"/><ellipse rx="1.878" ry="1.878" transform="matrix(-.77828 .62774 -.62811 -.77826 560.539 309.213)"/></g><g fill="#000" opacity=".5"><ellipse rx="1.878" ry="1.878" transform="matrix(-.7783 .62773 -.62812 -.77825 606.903 360.3)"/><ellipse rx="1.878" ry="1.878" transform="matrix(-.77829 .62774 -.62812 -.77826 541.44 368.217)"/><ellipse rx="1.878" ry="1.878" transform="matrix(-.77829 .62774 -.62812 -.77826 565.63 334.6)"/><ellipse rx="1.878" ry="1.878" transform="matrix(-.77829 .62774 -.62812 -.77826 588.722 337.775)"/><ellipse rx="1.878" ry="1.878" transform="matrix(-.77829 .62774 -.62812 -.77826 521.602 321.381)"/><ellipse rx="1.878" ry="1.878" transform="matrix(-.77829 .62774 -.62812 -.77826 473.269 361.648)"/><ellipse rx="1.878" ry="1.878" transform="matrix(-.77831 .6277 -.62815 -.77823 537.239 254.91)"/><ellipse rx="1.878" ry="1.878" transform="matrix(-.77829 .62774 -.62812 -.77826 543.053 227.138)"/><ellipse rx="1.878" ry="1.878" transform="matrix(.8337 -.55207 .55244 .83364 626.052 236.327)"/><ellipse rx="1.878" ry="1.878" transform="matrix(.8337 -.55208 .55244 .83364 621.61 305.479)"/><ellipse rx="1.878" ry="1.878" transform="matrix(-.77829 .62774 -.62812 -.77826 478.369 234.428)"/><ellipse rx="1.878" ry="1.878" transform="matrix(-.77829 .62774 -.62812 -.77826 634.984 434.692)"/><ellipse rx="1.878" ry="1.878" transform="matrix(-.77829 .62773 -.62812 -.77825 586.65 474.959)"/><ellipse rx="1.878" ry="1.878" transform="matrix(-.77828 .62774 -.62811 -.77826 591.748 347.739)"/></g><g fill="#000" opacity=".1"><ellipse rx="1.878" ry="1.878" transform="matrix(-.77829 .62773 -.62812 -.77825 443.582 438.003)"/><ellipse rx="1.878" ry="1.878" transform="matrix(-.77828 .62774 -.62811 -.77826 472.514 419.798)"/><ellipse rx="1.878" ry="1.878" transform="matrix(-.77829 .62773 -.62812 -.77825 503.257 464.249)"/><ellipse rx="1.878" ry="1.878" transform="matrix(-.77829 .62773 -.62812 -.77825 447.374 488.804)"/><ellipse rx="1.878" ry="1.878" transform="matrix(-.77829 .62774 -.62812 -.77826 391.509 440.251)"/><ellipse rx="1.878" ry="1.878" transform="matrix(-.77829 .62773 -.62812 -.77825 326.046 448.167)"/><ellipse rx="1.878" ry="1.878" transform="matrix(-.77828 .62774 -.62811 -.77826 350.237 414.55)"/><ellipse rx="1.878" ry="1.878" transform="matrix(-.77829 .62774 -.62812 -.77826 373.329 417.726)"/><ellipse rx="1.878" ry="1.878" transform="matrix(-.77829 .62773 -.62812 -.77825 306.208 401.332)"/><ellipse rx="1.878" ry="1.878" transform="matrix(-.77829 .62774 -.62812 -.77826 257.875 441.599)"/><ellipse rx="1.878" ry="1.878" transform="matrix(-.77829 .62773 -.62812 -.77825 321.845 334.86)"/><ellipse rx="1.878" ry="1.878" transform="matrix(-.77829 .62774 -.62812 -.77826 327.66 307.089)"/><ellipse rx="1.878" ry="1.878" transform="matrix(.8337 -.55207 .55244 .83364 608.888 368.583)"/><ellipse rx="1.878" ry="1.878" transform="matrix(.8337 -.55207 .55244 .83364 612.922 409.011)"/><ellipse rx="1.878" ry="1.878" transform="matrix(.8337 -.55207 .55245 .83364 546.877 453.942)"/><ellipse rx="1.878" ry="1.878" transform="matrix(.8337 -.55207 .55245 .83364 508.767 418.123)"/><ellipse rx="1.878" ry="1.878" transform="matrix(-.77829 .62774 -.62812 -.77826 549.509 410.273)"/><ellipse rx="1.878" ry="1.878" transform="matrix(-.77829 .62773 -.62812 -.77825 513.175 371.613)"/><ellipse rx="1.878" ry="1.878" transform="matrix(.8337 -.55207 .55245 .83364 410.659 316.278)"/><ellipse rx="1.878" ry="1.878" transform="matrix(.8337 -.55207 .55245 .83364 429.937 338.776)"/><ellipse rx="1.878" ry="1.878" transform="matrix(.83371 -.55206 .55245 .83364 406.216 385.43)"/><ellipse rx="1.878" ry="1.878" transform="matrix(-.77829 .62773 -.62812 -.77825 511.299 409.033)"/><ellipse rx="1.878" ry="1.878" transform="matrix(-.77829 .62774 -.62812 -.77826 262.975 314.378)"/><ellipse rx="1.878" ry="1.878" transform="matrix(-.77829 .62774 -.62812 -.77826 548.959 500.063)"/><ellipse rx="1.878" ry="1.878" transform="matrix(-.77829 .62773 -.62812 -.77825 597.298 499.545)"/><ellipse rx="1.878" ry="1.878" transform="matrix(-.77829 .62773 -.62812 -.77825 481.566 492.867)"/><ellipse rx="1.878" ry="1.878" transform="matrix(-.77829 .62773 -.62812 -.77825 471.13 457.683)"/><ellipse rx="1.878" ry="1.878" transform="matrix(-.77828 .62774 -.62811 -.77826 480.561 475.725)"/><ellipse rx="1.878" ry="1.878" transform="matrix(-.7783 .62773 -.62812 -.77825 537.479 514.453)"/><ellipse rx="1.878" ry="1.878" transform="matrix(-.77829 .62774 -.62811 -.77826 571.299 510.256)"/><ellipse rx="1.878" ry="1.878" transform="matrix(-.77828 .62774 -.62811 -.77826 510.527 520.803)"/><ellipse rx="1.878" ry="1.878" transform="matrix(-.7783 .62773 -.62813 -.77825 509.972 499.449)"/><ellipse rx="1.878" ry="1.878" transform="matrix(-.77829 .62774 -.62812 -.77826 459.826 477.06)"/><ellipse rx="1.878" ry="1.878" transform="matrix(-.77829 .62774 -.62811 -.77826 466.692 439.463)"/><ellipse rx="1.878" ry="1.878" transform="matrix(-.77829 .62774 -.62812 -.77826 591.759 518.119)"/><ellipse rx="1.878" ry="1.878" transform="matrix(-.77829 .62774 -.62812 -.77826 458.525 502.474)"/><ellipse rx="1.878" ry="1.878" transform="matrix(-.77829 .62774 -.62812 -.77826 556.964 551.314)"/><ellipse rx="1.878" ry="1.878" transform="matrix(-.77829 .62774 -.62812 -.77826 585.894 533.108)"/><ellipse rx="1.878" ry="1.878" transform="matrix(-.77829 .62774 -.62812 -.77826 616.638 577.559)"/><ellipse rx="1.878" ry="1.878" transform="matrix(-.77829 .62773 -.62812 -.77825 560.754 602.114)"/><ellipse rx="1.878" ry="1.878" transform="matrix(-.77829 .62773 -.62812 -.77825 504.89 553.562)"/><ellipse rx="1.878" ry="1.878" transform="matrix(-.7783 .62773 -.62813 -.77825 439.426 561.478)"/><ellipse rx="1.878" ry="1.878" transform="matrix(-.77829 .62774 -.62812 -.77826 463.618 527.861)"/><ellipse rx="1.878" ry="1.878" transform="matrix(-.77829 .62774 -.62812 -.77826 486.709 531.036)"/><ellipse rx="1.878" ry="1.878" transform="matrix(-.77828 .62774 -.62811 -.77826 419.59 514.642)"/><ellipse rx="1.878" ry="1.878" transform="matrix(-.77829 .62774 -.62812 -.77826 371.255 554.91)"/><ellipse rx="1.878" ry="1.878" transform="matrix(-.77829 .62774 -.62812 -.77826 435.227 448.171)"/><ellipse rx="1.878" ry="1.878" transform="matrix(-.77829 .62774 -.62812 -.77826 441.04 420.399)"/><ellipse rx="1.878" ry="1.878" transform="matrix(-.7783 .62773 -.62812 -.77825 626.555 484.924)"/><ellipse rx="1.878" ry="1.878" transform="matrix(-.77829 .62774 -.62812 -.77826 624.679 522.344)"/><ellipse rx="1.878" ry="1.878" transform="matrix(-.77828 .62774 -.62811 -.77826 376.355 427.689)"/><ellipse rx="1.878" ry="1.878" transform="matrix(.8337 -.55208 .55244 .83365 593.657 461.274)"/></g></g><mask id="b" width="434" height="284" x="127" y="114" mask-type="alpha" maskUnits="userSpaceOnUse"><path fill="url(#paint0_radial)" d="M444.502 330.506C496.572 316.874 543.748 307.538 559.146 237.691C567.053 202.161 544.514 160.432 512.899 153.646C482.133 147.049 447.425 158.015 417.019 160.066C377.818 162.445 343.434 144.028 307.185 131.071C187.785 88.934 138.098 135.734 129.857 159.195C114.135 204.899 186.762 213.707 205.529 234.363C227.692 258.792 220.329 302.765 226.067 334.476C249.86 467.542 358.529 353.081 444.502 330.506Z"/></mask><g mask="url(#b)"><rect width="496.448" height="585.255" fill="url(#paint1_linear)" rx="20" transform="matrix(.99998 .00615 .05472 .9985 164.959 -77.393)"/></g><mask id="c" width="258" height="323" x="340" y="168" mask-type="alpha" maskUnits="userSpaceOnUse"><path fill="url(#paint2_radial)" d="M486.672 202.809C458.394 177.486 434.812 152.966 381.938 179.941C355.014 193.617 335.041 229.519 342.023 252.781C348.822 275.416 368.942 291.31 381.458 309.192C397.415 332.384 397.545 363.464 402.049 392.846C417.253 489.346 467.091 495.814 485.975 488.666C522.64 474.535 502.015 424.647 509.115 402.131C517.526 375.523 549.961 357.086 569.307 336.905C650.594 252.392 533.407 244.584 486.672 202.809Z"/></mask><g mask="url(#c)"><rect width="424.614" height="503.323" fill="url(#paint3_linear)" rx="20" transform="matrix(-.50007 -.86599 .76195 -.64763 345.815 647.298)"/></g><mask id="d" width="320" height="385" x="13" y="103" mask-type="alpha" maskUnits="userSpaceOnUse"><path fill="url(#paint4_radial)" d="M307.86 354.307C308.662 404.699 312.509 449.644 244.608 480.023C210.089 495.543 160.432 484.932 144.35 457.878C128.708 431.549 130.12 397.518 123.533 369.483C114.767 333.399 85.851 306.571 62.0538 276.769C-15.7709 178.479 18.4484 122.447 40.3772 109.462C83.1908 84.4668 113.113 148.21 139.873 160.359C171.512 174.698 214.929 157.686 249.402 155.428C393.979 145.699 306.606 271.09 307.86 354.307Z"/></mask><g mask="url(#d)"><rect width="472.089" height="623.667" fill="url(#paint5_linear)" rx="20" transform="matrix(.30791 .95141 .98478 -.17381 -145 86.401)"/></g><mask id="e" width="353" height="225" x="131" y="279" mask-type="alpha" maskUnits="userSpaceOnUse"><path fill="url(#paint6_radial)" d="M187.735 422.55C153.419 402.878 121.278 387.275 134.06 333.017C140.506 305.403 171.954 278.861 198.038 279.718C223.418 280.556 245.637 295.052 267.735 302.188C296.317 311.195 328.53 304.003 360.24 301.176C464.5 292.261 485.472 335.903 483.481 354.696C479.354 391.245 421.796 384.286 400.52 396.015C375.382 409.894 365.585 443.622 350.233 465.9C286.022 559.435 244.371 455.077 187.735 422.55Z"/></mask><g mask="url(#e)"><rect width="384.121" height="481.401" fill="url(#paint7_linear)" rx="20" transform="matrix(-.9724 -.23335 -.47283 .88115 539.572 174.065)"/></g><mask id="f" width="274" height="392" x="130" y="77" mask-type="alpha" maskUnits="userSpaceOnUse"><path fill="url(#paint8_radial)" d="M188.482 367.682C199.222 417.667 205.984 463.39 273.964 468.638C308.541 471.38 350.791 442.845 359.102 410.314C367.183 378.657 358.174 345.612 357.722 315.568C357.399 276.795 377.305 239.815 391.931 201.766C424.89 116.021 381.778 84.5941 359.102 79.7695C314.91 70.7009 295.27 95.872 273.964 117.591C248.768 143.246 227.348 139.967 195.829 150.286C63.5799 193.305 170.683 285.162 188.482 367.682Z"/></mask><g mask="url(#f)"><rect width="635.427" height="653.752" fill="url(#paint9_linear)" rx="20" transform="matrix(-.05756 .99834 -.98019 .19807 700.378 -84.67)"/></g></g></g><defs><radialGradient id="paint0_radial" cx="0" cy="0" r="1" gradientTransform="matrix(165.6268 134.6142 -161.95937 199.27177 432.716 275.17)" gradientUnits="userSpaceOnUse"><stop stop-color="#1B1A21"/><stop offset="1" stop-color="#1B1A21" stop-opacity="0"/></radialGradient><linearGradient id="paint1_linear" x1="-44.426" x2="373.253" y1="329.742" y2="692.55" gradientUnits="userSpaceOnUse"><stop stop-color="#1B1A21" stop-opacity="0"/><stop offset="1" stop-color="#1B1A21"/></linearGradient><radialGradient id="paint2_radial" cx="0" cy="0" r="1" gradientTransform="rotate(-80.069 369.101 -150.372) scale(176.386 190.561)" gradientUnits="userSpaceOnUse"><stop stop-color="#1B1A21"/><stop offset="1" stop-color="#1B1A21" stop-opacity="0"/></radialGradient><linearGradient id="paint3_linear" x1="-37.998" x2="320.929" y1="283.58" y2="593.648" gradientUnits="userSpaceOnUse"><stop stop-opacity="0"/><stop offset="1"/></linearGradient><radialGradient id="paint4_radial" cx="0" cy="0" r="1" gradientTransform="rotate(32.374 -490.692 604.099) scale(221.187 249.156)" gradientUnits="userSpaceOnUse"><stop stop-color="#1B1A21"/><stop offset="1" stop-color="#1B1A21" stop-opacity="0"/></radialGradient><linearGradient id="paint5_linear" x1="-42.246" x2="393.07" y1="351.384" y2="688.811" gradientUnits="userSpaceOnUse"><stop stop-opacity="0"/><stop offset="1"/></linearGradient><radialGradient id="paint6_radial" cx="0" cy="0" r="1" gradientTransform="rotate(147.819 58.886 203.297) scale(203.58 202.504)" gradientUnits="userSpaceOnUse"><stop stop-color="#1B1A21"/><stop offset="1" stop-color="#1B1A21" stop-opacity="0"/></radialGradient><linearGradient id="paint7_linear" x1="-34.374" x2="305.639" y1="271.228" y2="549.047" gradientUnits="userSpaceOnUse"><stop stop-color="#1B1A21" stop-opacity="0"/><stop offset="1" stop-color="#1B1A21"/></linearGradient><radialGradient id="paint8_radial" cx="0" cy="0" r="1" gradientTransform="rotate(81.259 -33.617 281.065) scale(262.398 264.905)" gradientUnits="userSpaceOnUse"><stop stop-color="#1B1A21"/><stop offset="1" stop-color="#1B1A21" stop-opacity="0"/></radialGradient><linearGradient id="paint9_linear" x1="-56.863" x2="414.33" y1="368.334" y2="837.316" gradientUnits="userSpaceOnUse"><stop stop-opacity="0"/><stop offset="1"/></linearGradient><clipPath id="clip0"><path fill="#fff" d="M0 0H640V640H0z"/></clipPath></defs></svg>